<?xml version="1.0" encoding="utf-8"?>
<!-- Generator: Adobe Illustrator 25.0.0, SVG Export Plug-In . SVG Version: 6.00 Build 0)  -->
<svg version="1.1" id="Layer_1" xmlns="http://www.w3.org/2000/svg" xmlns:xlink="http://www.w3.org/1999/xlink" x="0px" y="0px"
	 viewBox="0 0 3000 3000" style="enable-background:new 0 0 3000 3000;" xml:space="preserve">
<style type="text/css">
	.st0{filter:url(#Adobe_OpacityMaskFilter);}
	.st1{filter:url(#Adobe_OpacityMaskFilter_1_);}
	.st2{mask:url(#SVGID_1_);fill:url(#SVGID_2_);}
	.st3{fill:url(#SVGID_3_);}
	.st4{filter:url(#Adobe_OpacityMaskFilter_2_);}
	.st5{filter:url(#Adobe_OpacityMaskFilter_3_);}
	.st6{mask:url(#SVGID_4_);fill:url(#SVGID_5_);}
	.st7{fill:url(#SVGID_6_);}
	.st8{fill:none;stroke:#127FC5;stroke-width:3;stroke-miterlimit:10;}
	.st9{fill:none;stroke:#127FC5;stroke-width:3;stroke-miterlimit:10;stroke-dasharray:3.1948,3.1948;}
	.st10{fill:none;stroke:#127FC5;stroke-width:3;stroke-miterlimit:10;stroke-dasharray:3.2159,3.2159;}
	.st11{fill:none;stroke:#127FC5;stroke-width:3;stroke-miterlimit:10;stroke-dasharray:3.2224,3.2224;}
	.st12{fill:none;stroke:#127FC5;stroke-width:3;stroke-miterlimit:10;stroke-dasharray:3.1717,3.1717;}
	.st13{fill:none;stroke:#127FC5;stroke-width:3;stroke-miterlimit:10;stroke-dasharray:3.1855,3.1855;}
	.st14{fill:none;stroke:#127FC5;stroke-width:3;stroke-miterlimit:10;stroke-dasharray:3.203,3.203;}
	.st15{fill:none;stroke:#127FC5;stroke-width:3;stroke-miterlimit:10;stroke-dasharray:3.2028,3.2028;}
	.st16{fill:none;stroke:#127FC5;stroke-width:3;stroke-miterlimit:10;stroke-dasharray:3.1851,3.1851;}
	.st17{fill:none;stroke:#127FC5;stroke-width:3;stroke-miterlimit:10;stroke-dasharray:3.1549,3.1549;}
	.st18{fill:none;stroke:#127FC5;stroke-width:3;stroke-miterlimit:10;stroke-dasharray:3.214,3.214;}
	.st19{fill:none;stroke:#127FC5;stroke-width:3;stroke-miterlimit:10;stroke-dasharray:3.1936,3.1936;}
	.st20{fill:none;stroke:#127FC5;stroke-width:3;stroke-miterlimit:10;stroke-dasharray:3.1911,3.1911;}
	.st21{fill:none;stroke:#127FC5;stroke-width:3;stroke-miterlimit:10;stroke-dasharray:3.1835,3.1835;}
	.st22{fill:none;stroke:#127FC5;stroke-width:3;stroke-miterlimit:10;stroke-dasharray:3.2282,3.2282;}
	.st23{fill:none;stroke:#127FC5;stroke-width:3;stroke-miterlimit:10;stroke-dasharray:3.182,3.182;}
	.st24{fill:none;stroke:#127FC5;stroke-width:3;stroke-miterlimit:10;stroke-dasharray:3.1969,3.1969;}
	.st25{fill:none;stroke:#127FC5;stroke-width:3;stroke-miterlimit:10;stroke-dasharray:3.192,3.192;}
	.st26{fill:none;stroke:#0033A1;stroke-width:3;stroke-miterlimit:10;stroke-dasharray:3.1975;}
	.st27{fill:#054DDD;}
	.st28{fill:#4779F6;}
	.st29{fill:#130751;}
	.st30{fill:#B6CEFF;}
	.st31{fill:#E4EAFE;}
	.st32{opacity:0.24;fill:#FFFFFF;}
	.st33{fill:#127FC5;}
	.st34{fill:#FCA232;}
	.st35{fill:#F98816;}
	.st36{clip-path:url(#SVGID_8_);fill:#FFFFFF;}
	.st37{clip-path:url(#SVGID_8_);}
	.st38{fill:#FFFFFF;}
	.st39{clip-path:url(#SVGID_10_);fill:#FFFFFF;}
	.st40{clip-path:url(#SVGID_10_);}
	.st41{fill:#DDDDDD;}
	.st42{fill:#FFB564;}
	.st43{clip-path:url(#SVGID_12_);fill:#B6CEFF;}
	.st44{clip-path:url(#SVGID_12_);fill:#FFFFFF;}
	.st45{opacity:0.51;}
	.st46{fill:#001D4C;}
	.st47{fill:#F7F7F7;}
	.st48{fill:#EFEEEE;}
	.st49{fill:#ABABAB;}
	.st50{fill:#DEDEDD;}
	.st51{fill:#448E47;}
	.st52{fill:#61B565;}
	.st53{fill:#FCCFCF;}
	.st54{fill:#DC3B3B;}
	.st55{fill:#F36B6B;}
	.st56{fill:#FFEBEB;}
	.st57{fill:#E9E9E0;}
	.st58{fill:#D9D7CA;}
	.st59{fill:#F29C1F;}
	.st60{fill:#292C47;}
	.st61{fill:#E2D2CA;}
	.st62{fill:#EEA886;}
	.st63{fill:#EAD8CF;}
	.st64{fill:#DA9B5B;}
	.st65{fill:#424773;}
	.st66{fill:#3A3F47;}
	.st67{fill:#323657;}
	.st68{fill:#252840;}
</style>
<defs>
	<filter id="Adobe_OpacityMaskFilter" filterUnits="userSpaceOnUse" x="-3091.83" y="1676.36" width="112.02" height="54.45">
		<feFlood  style="flood-color:white;flood-opacity:1" result="back"/>
		<feBlend  in="SourceGraphic" in2="back" mode="normal"/>
	</filter>
</defs>
<mask maskUnits="userSpaceOnUse" x="-3091.83" y="1676.36" width="112.02" height="54.45" id="SVGID_1_">
	<g class="st0">
		<defs>
			<filter id="Adobe_OpacityMaskFilter_1_" filterUnits="userSpaceOnUse" x="-3091.83" y="1676.36" width="112.02" height="54.45">
				<feFlood  style="flood-color:white;flood-opacity:1" result="back"/>
				<feBlend  in="SourceGraphic" in2="back" mode="normal"/>
			</filter>
		</defs>
		<mask maskUnits="userSpaceOnUse" x="-3091.83" y="1676.36" width="112.02" height="54.45" id="SVGID_1_">
			<g class="st1">
			</g>
		</mask>
		<linearGradient id="SVGID_2_" gradientUnits="userSpaceOnUse" x1="-3041.335" y1="1437.1866" x2="-3031.9001" y2="1893.1804">
			<stop  offset="0" style="stop-color:#FFFFFF"/>
			<stop  offset="1" style="stop-color:#000000"/>
		</linearGradient>
		<polygon class="st2" points="-3065.58,1730.81 -2979.81,1730.81 -3006.07,1676.36 -3091.83,1676.36 		"/>
	</g>
</mask>
<linearGradient id="SVGID_3_" gradientUnits="userSpaceOnUse" x1="-3041.335" y1="1437.1866" x2="-3031.9001" y2="1893.1804">
	<stop  offset="0" style="stop-color:#40D5E6"/>
	<stop  offset="1" style="stop-color:#5577FF"/>
</linearGradient>
<polygon class="st3" points="-3065.58,1730.81 -2979.81,1730.81 -3006.07,1676.36 -3091.83,1676.36 "/>
<defs>
	<filter id="Adobe_OpacityMaskFilter_2_" filterUnits="userSpaceOnUse" x="-3131.96" y="1676.36" width="46.69" height="54.45">
		<feFlood  style="flood-color:white;flood-opacity:1" result="back"/>
		<feBlend  in="SourceGraphic" in2="back" mode="normal"/>
	</filter>
</defs>
<mask maskUnits="userSpaceOnUse" x="-3131.96" y="1676.36" width="46.69" height="54.45" id="SVGID_4_">
	<g class="st4">
		<defs>
			<filter id="Adobe_OpacityMaskFilter_3_" filterUnits="userSpaceOnUse" x="-3131.96" y="1676.36" width="46.69" height="54.45">
				<feFlood  style="flood-color:white;flood-opacity:1" result="back"/>
				<feBlend  in="SourceGraphic" in2="back" mode="normal"/>
			</filter>
		</defs>
		<mask maskUnits="userSpaceOnUse" x="-3131.96" y="1676.36" width="46.69" height="54.45" id="SVGID_4_">
			<g class="st5">
			</g>
		</mask>
		<linearGradient id="SVGID_5_" gradientUnits="userSpaceOnUse" x1="-3114.0999" y1="1438.6923" x2="-3104.665" y2="1894.6855">
			<stop  offset="0" style="stop-color:#FFFFFF"/>
			<stop  offset="1" style="stop-color:#000000"/>
		</linearGradient>
		<polygon class="st6" points="-3105.71,1730.81 -3085.28,1730.81 -3111.53,1676.36 -3131.96,1676.36 		"/>
	</g>
</mask>
<linearGradient id="SVGID_6_" gradientUnits="userSpaceOnUse" x1="-3114.0999" y1="1438.6923" x2="-3104.665" y2="1894.6855">
	<stop  offset="0" style="stop-color:#40D5E6"/>
	<stop  offset="1" style="stop-color:#5577FF"/>
</linearGradient>
<polygon class="st7" points="-3105.71,1730.81 -3085.28,1730.81 -3111.53,1676.36 -3131.96,1676.36 "/>
<g>
	<g>
		<g>
			<line class="st8" x1="425.76" y1="1666.27" x2="425.76" y2="1664.67"/>
			<line class="st9" x1="425.76" y1="1661.48" x2="425.76" y2="1439.44"/>
			<polyline class="st8" points="425.76,1437.85 425.76,1436.25 424.16,1436.25 			"/>
			<line class="st10" x1="420.95" y1="1436.25" x2="133.13" y2="1436.25"/>
			<polyline class="st8" points="131.52,1436.25 129.92,1436.25 129.92,1434.65 			"/>
			<line class="st11" x1="129.92" y1="1431.43" x2="129.92" y2="1123.69"/>
			<polyline class="st8" points="129.92,1122.08 129.92,1120.48 131.52,1120.48 			"/>
			<line class="st12" x1="134.69" y1="1120.48" x2="494.68" y2="1120.48"/>
			<polyline class="st8" points="496.26,1120.48 497.86,1120.48 497.86,1118.88 			"/>
			<line class="st13" x1="497.86" y1="1115.7" x2="497.86" y2="371.89"/>
			<polyline class="st8" points="497.86,370.3 497.86,368.7 499.46,368.7 			"/>
			<line class="st14" x1="502.66" y1="368.7" x2="1122.44" y2="368.7"/>
			<polyline class="st8" points="1124.04,368.7 1125.64,368.7 1125.64,367.1 			"/>
			<line class="st15" x1="1125.64" y1="363.89" x2="1125.64" y2="166.92"/>
			<polyline class="st8" points="1125.64,165.32 1125.64,163.72 1127.24,163.72 			"/>
			<line class="st16" x1="1130.43" y1="163.72" x2="1434.6" y2="163.72"/>
			<polyline class="st8" points="1436.19,163.72 1437.79,163.72 1437.79,165.32 			"/>
			<line class="st17" x1="1437.79" y1="168.48" x2="1437.79" y2="375.12"/>
			<polyline class="st8" points="1437.79,376.7 1437.79,378.3 1439.39,378.3 			"/>
			<line class="st18" x1="1442.6" y1="378.3" x2="1749.54" y2="378.3"/>
			<polyline class="st8" points="1751.14,378.3 1752.74,378.3 1752.74,379.9 			"/>
			<line class="st19" x1="1752.74" y1="383.09" x2="1752.74" y2="451.76"/>
			<polyline class="st8" points="1752.74,453.35 1752.74,454.95 1754.34,454.95 			"/>
			<line class="st20" x1="1757.53" y1="454.95" x2="2285.66" y2="454.95"/>
			<polyline class="st8" points="2287.25,454.95 2288.85,454.95 2288.85,456.55 			"/>
			<line class="st21" x1="2288.85" y1="459.73" x2="2288.85" y2="579.12"/>
			<polyline class="st8" points="2288.85,580.71 2288.85,582.31 2290.45,582.31 			"/>
			<line class="st22" x1="2293.68" y1="582.31" x2="2576.15" y2="582.31"/>
			<polyline class="st8" points="2577.76,582.31 2579.36,582.31 2579.36,583.9 			"/>
			<line class="st23" x1="2579.36" y1="587.09" x2="2579.36" y2="859.15"/>
			<polyline class="st8" points="2579.36,860.74 2579.36,862.34 2577.76,862.34 			"/>
			<line class="st24" x1="2574.57" y1="862.34" x2="2358.77" y2="862.34"/>
			<polyline class="st8" points="2357.17,862.34 2355.58,862.34 2355.58,863.94 			"/>
			<line class="st25" x1="2355.58" y1="867.13" x2="2355.58" y2="1535.86"/>
			<line class="st8" x1="2355.58" y1="1537.46" x2="2355.58" y2="1539.06"/>
		</g>
	</g>
	<polyline class="st26" points="2288.85,454.95 2288.85,292.51 564.35,292.51 564.35,364.79 564.35,792.32 276.01,792.32 
		276.01,1336.29 634.59,1336.29 	"/>
	<g>
		<g>
			<g>
				<polygon class="st27" points="1185.41,1999.97 1149.7,2247.72 1573.79,2247.72 1533.61,1999.97 				"/>
				<rect x="1002.39" y="2283.43" class="st27" width="718.72" height="17.86"/>
				<polygon class="st28" points="1149.7,2247.72 1002.39,2283.43 1721.1,2283.43 1573.79,2247.72 				"/>
			</g>
			<g>
				<path class="st29" d="M2190.25,1872.39H533.24V957.11c0-7.01,5.68-12.68,12.68-12.68h1631.64c7.01,0,12.68,5.68,12.68,12.68
					V1872.39z"/>
				<path class="st28" d="M2177.62,2031.22H545.87c-6.98,0-12.63-5.66-12.63-12.63v-146.19h1657.01v146.19
					C2190.25,2025.56,2184.59,2031.22,2177.62,2031.22z"/>
				<rect x="594.38" y="997.99" class="st30" width="1534.74" height="816.93"/>
				<path class="st29" d="M1394.11,1945.49c0,17.87-14.49,32.36-32.36,32.36c-17.87,0-32.36-14.49-32.36-32.36
					s14.49-32.36,32.36-32.36C1379.62,1913.13,1394.11,1927.62,1394.11,1945.49z"/>
			</g>
			<g>
				<g>
					<rect x="836.34" y="1091.24" class="st28" width="543.45" height="634.34"/>
					<rect x="914.88" y="1177.74" class="st31" width="386.37" height="34.6"/>
					<rect x="914.88" y="1241.17" class="st31" width="386.37" height="34.6"/>
					<rect x="914.88" y="1304.61" class="st31" width="386.37" height="34.6"/>
					<rect x="914.88" y="1368.04" class="st31" width="386.37" height="34.6"/>
					<rect x="914.88" y="1431.47" class="st31" width="386.37" height="34.6"/>
					<rect x="914.88" y="1494.91" class="st31" width="386.37" height="34.6"/>
					<rect x="914.88" y="1558.34" class="st31" width="386.37" height="34.6"/>
					<rect x="914.88" y="1621.78" class="st31" width="386.37" height="34.6"/>
				</g>
				<g>
					<path class="st29" d="M1745.71,1321.33v-55.28h-34.4c-2.91-12.56-7.77-24.38-14.28-35.08l24.51-24.51l-39.08-39.09
						l-24.33,24.32c-10.64-6.64-22.39-11.65-34.91-14.68v-34.69h-55.27v34.4c-12.57,2.9-24.39,7.76-35.09,14.29l-24.52-24.51
						l-39.08,39.08l24.32,24.32c-6.64,10.64-11.65,22.39-14.68,34.92h-34.69v55.27h34.4c2.91,12.57,7.77,24.38,14.29,35.09
						l-24.52,24.51l39.09,39.09l24.33-24.33c10.63,6.64,22.38,11.65,34.91,14.69v34.69h55.28v-34.4
						c12.57-2.91,24.38-7.76,35.08-14.29l24.52,24.51l39.08-39.09l-24.32-24.32c6.64-10.64,11.65-22.38,14.68-34.91H1745.71z
						 M1594.95,1346.2c-29.34,0-53.13-23.78-53.13-53.12c0-29.34,23.78-53.13,53.13-53.13c29.34,0,53.13,23.79,53.13,53.13
						C1648.08,1322.41,1624.29,1346.2,1594.95,1346.2z"/>
					<path class="st29" d="M1951.88,1490.85v-43.52h-27.08c-2.29-9.89-6.12-19.2-11.25-27.62l19.3-19.3l-30.77-30.77l-19.15,19.15
						c-8.37-5.22-17.63-9.17-27.49-11.56v-27.31h-43.52v27.09c-9.9,2.28-19.2,6.11-27.62,11.25l-19.3-19.3l-30.77,30.77l19.15,19.15
						c-5.23,8.38-9.17,17.63-11.56,27.49h-27.31v43.52h27.08c2.29,9.89,6.12,19.2,11.25,27.62l-19.3,19.3l30.77,30.77l19.15-19.15
						c8.37,5.23,17.62,9.17,27.48,11.56v27.31h43.52v-27.09c9.89-2.29,19.2-6.11,27.62-11.25l19.3,19.3l30.77-30.77l-19.15-19.15
						c5.23-8.37,9.17-17.62,11.56-27.49H1951.88z M1833.2,1510.43c-23.1,0-41.83-18.73-41.83-41.82c0-23.1,18.73-41.83,41.83-41.83
						c23.1,0,41.83,18.73,41.83,41.83C1875.02,1491.71,1856.29,1510.43,1833.2,1510.43z"/>
					<path class="st29" d="M1713.64,1591.55v-30.88h-19.21c-1.62-7.02-4.34-13.62-7.98-19.6l13.69-13.69l-21.83-21.83l-13.59,13.59
						c-5.94-3.71-12.51-6.51-19.5-8.2v-19.38h-30.88v19.22c-7.02,1.62-13.62,4.34-19.6,7.98l-13.7-13.69l-21.83,21.83l13.59,13.59
						c-3.71,5.94-6.51,12.51-8.2,19.5h-19.38v30.88h19.21c1.62,7.02,4.34,13.62,7.98,19.6l-13.69,13.69l21.83,21.83l13.59-13.59
						c5.94,3.71,12.5,6.51,19.5,8.2v19.38h30.88v-19.22c7.02-1.62,13.62-4.34,19.6-7.98l13.69,13.69l21.83-21.83l-13.59-13.59
						c3.71-5.94,6.51-12.5,8.2-19.5H1713.64z M1629.43,1605.44c-16.39,0-29.68-13.29-29.68-29.67c0-16.39,13.29-29.68,29.68-29.68
						c16.39,0,29.68,13.29,29.68,29.68C1659.11,1592.15,1645.82,1605.44,1629.43,1605.44z"/>
				</g>
			</g>
		</g>
		<polygon class="st32" points="1322.7,997.99 992.75,1814.92 1175.39,1814.92 1502.38,997.99 		"/>
		<polygon class="st32" points="1616,997.99 1307.92,1814.92 1381.33,1814.92 1694.74,997.99 		"/>
	</g>
	<g>
		<g>
			<path class="st33" d="M2028.2,475.57c-3.23,0-6.51-0.71-9.62-2.23c-19.99-9.74-39.64-0.48-40.46-0.08
				c-10.86,5.23-24.02,0.83-29.38-9.97c-5.36-10.79-1.15-23.84,9.59-29.32c1.59-0.81,39.48-19.7,79.52-0.18
				c10.92,5.32,15.46,18.48,10.14,29.41C2044.18,471.02,2036.35,475.57,2028.2,475.57z"/>
		</g>
		<g>
			<path class="st33" d="M2081.59,415.85c-4.36,0-8.76-1.29-12.6-3.99c-70.72-49.56-138.47-0.81-139.14-0.31
				c-9.78,7.21-23.55,5.12-30.76-4.65c-7.21-9.78-5.12-23.55,4.65-30.76c32.19-23.72,113.41-54.32,190.5-0.31
				c9.95,6.97,12.36,20.68,5.39,30.64C2095.34,412.59,2088.52,415.85,2081.59,415.85z"/>
		</g>
		<g>
			<path class="st33" d="M2134.99,360.06c-4.7,0-9.43-1.5-13.44-4.6c-130.97-101.25-237.78-5.41-242.26-1.27
				c-8.91,8.21-22.82,7.68-31.05-1.19c-8.24-8.88-7.78-22.74,1.08-31.01c1.36-1.27,138.12-125.84,299.14-1.33
				c9.61,7.43,11.38,21.24,3.95,30.85C2148.07,357.12,2141.57,360.06,2134.99,360.06z"/>
		</g>
	</g>
	<g>
		<g>
			
				<ellipse transform="matrix(0.7071 -0.7071 0.7071 0.7071 258.6369 1789.0173)" class="st34" cx="2288.85" cy="582.31" rx="196.87" ry="196.87"/>
			<path class="st35" d="M2138.78,454.95c-29.17,34.34-46.8,78.77-46.8,127.35c0,108.73,88.14,196.87,196.87,196.87
				c53.07,0,101.2-21.04,136.6-55.18C2199.97,692.14,2148.71,544.42,2138.78,454.95z"/>
		</g>
	</g>
	<g id="XMLID_9074_">
		<path id="XMLID_9075_" class="st33" d="M2515.87,1977.94l23.04,0.06c128.86-5.4,229.64-110.42,229.64-239.56
			c0-129.13-100.79-234.15-229.65-239.57l-22.82-0.07c-0.07,0.05-0.14,0.09-0.22,0.14c-127.37,6.75-227,111.74-227,239.5
			C2288.85,1866.19,2388.48,1971.19,2515.87,1977.94z M2371.03,1893.49c15.21-11.05,31.68-20.52,49.06-28.2
			c16.49,34.47,39.42,64.93,68.28,90.69C2444.06,1947.74,2402.89,1925.87,2371.03,1893.49z M2519.43,1957.48
			c-35.09-26.37-63.35-60.51-82.09-99.13c26.31-9.56,53.88-15.04,82.09-16.32V1957.48z M2519.43,1823.5
			c-30.82,1.32-60.92,7.32-89.58,17.86c-10.93-27.22-17.36-56.03-19.14-85.76l108.73-0.04V1823.5z M2519.43,1736.98l-109.31,0.07
			c0.14-30.47,5.16-60.29,14.93-88.72c30.12,11.86,61.83,18.58,94.38,19.99V1736.98z M2565.87,1956.56
			c30.2-26.78,53.9-58.55,70.58-94.6c18.67,7.59,36.4,17.19,52.78,28.64C2656.16,1925.45,2612.84,1948.57,2565.87,1956.56z
			 M2701.48,1876.56c-17.91-12.72-37.37-23.36-57.89-31.7c10.99-28.43,17.42-58.47,19.15-89.4l86.56-0.05
			C2745.93,1799.92,2729.45,1841.67,2701.48,1876.56z M2708.41,1609.45c26.92,37.36,41.27,81.33,41.59,127.41l-86.7,0.06
			c-0.16-31.58-5.26-62.62-15.17-92.29C2669.5,1635.39,2689.75,1623.57,2708.41,1609.45z M2696.96,1594.86
			c-17.14,12.93-35.7,23.8-55.26,32.35c-16.56-40.63-42.62-77.31-75.86-106.9C2616.9,1528.95,2663,1555.1,2696.96,1594.86z
			 M2537.97,1521.34c38.65,29.72,68.42,68.52,86.48,112.74c-27.8,9.94-56.87,15.3-86.48,15.92V1521.34z M2537.97,1668.56
			c31.75-0.62,62.96-6.37,92.86-17.09c9.09,27.52,13.76,56.24,13.92,85.46l-106.78,0.06V1668.56z M2537.97,1755.52l106.2-0.04
			c-1.71,28.68-7.76,56.55-17.99,82.94c-28.39-9.48-58.03-14.56-88.21-15.14V1755.52z M2537.97,1841.8
			c27.67,0.56,54.87,5.17,80.96,13.74c-18.26,38.81-46.12,73.19-80.96,99.99V1841.8z M2519.43,1519.4v130.36
			c-30.21-1.4-59.68-7.7-87.72-18.77C2450.28,1587.09,2480.5,1548.64,2519.43,1519.4z M2488.4,1520.89
			c-31.92,28.58-57.22,63.82-73.7,102.72c-18.23-8.67-35.51-19.39-51.43-31.92C2396.17,1554.63,2440.13,1529.8,2488.4,1520.89z
			 M2351.53,1606.07c17.49,13.77,36.44,25.49,56.42,34.88c-10.72,30.75-16.23,63.05-16.38,96.11l-84.16,0.04
			C2307.69,1689.44,2322.92,1644.23,2351.53,1606.07z M2308.11,1755.65l84.03-0.04c1.81,32.15,8.69,63.3,20.5,92.71
			c-19.19,8.48-37.37,19.01-54.11,31.35C2329.01,1844.2,2311.64,1801.45,2308.11,1755.65z"/>
	</g>
	<g>
		<rect x="328.31" y="1058.41" class="st28" width="429.24" height="90.54"/>
		<g>
			<defs>
				<path id="SVGID_7_" d="M403.2,1098.77c0,15.46-12.53,27.99-27.99,27.99c-15.46,0-27.99-12.53-27.99-27.99
					c0-15.46,12.53-27.99,27.99-27.99C390.67,1070.79,403.2,1083.32,403.2,1098.77z"/>
			</defs>
			<clipPath id="SVGID_8_">
				<use xlink:href="#SVGID_7_"  style="overflow:visible;"/>
			</clipPath>
			<path class="st36" d="M403.2,1098.77c0,15.46-12.53,27.99-27.99,27.99c-15.46,0-27.99-12.53-27.99-27.99
				c0-15.46,12.53-27.99,27.99-27.99C390.67,1070.79,403.2,1083.32,403.2,1098.77z"/>
			<g class="st37">
				<path class="st28" d="M384.96,1088.55c0,5.39-4.37,9.76-9.76,9.76c-5.39,0-9.76-4.37-9.76-9.76c0-5.39,4.37-9.76,9.76-9.76
					C380.6,1078.8,384.96,1083.16,384.96,1088.55z"/>
				<path class="st28" d="M394.55,1127.14h-38.69v-25.18c0-1.65,1.34-2.99,2.99-2.99h32.7c1.65,0,2.99,1.34,2.99,2.99V1127.14z"/>
			</g>
		</g>
		<rect x="416.87" y="1081.47" class="st38" width="285.68" height="4.31"/>
		<rect x="416.87" y="1094.46" class="st38" width="285.68" height="4.31"/>
		<rect x="416.87" y="1107.45" class="st38" width="285.68" height="4.31"/>
		<rect x="416.87" y="1120.44" class="st38" width="285.68" height="4.31"/>
	</g>
	<g>
		<rect x="328.31" y="1180.37" class="st28" width="429.24" height="90.54"/>
		<g>
			<defs>
				<path id="SVGID_9_" d="M403.2,1220.74c0,15.46-12.53,27.99-27.99,27.99c-15.46,0-27.99-12.53-27.99-27.99
					c0-15.46,12.53-27.99,27.99-27.99C390.67,1192.75,403.2,1205.28,403.2,1220.74z"/>
			</defs>
			<clipPath id="SVGID_10_">
				<use xlink:href="#SVGID_9_"  style="overflow:visible;"/>
			</clipPath>
			<path class="st39" d="M403.2,1220.74c0,15.46-12.53,27.99-27.99,27.99c-15.46,0-27.99-12.53-27.99-27.99
				c0-15.46,12.53-27.99,27.99-27.99C390.67,1192.75,403.2,1205.28,403.2,1220.74z"/>
			<g class="st40">
				<path class="st28" d="M384.96,1210.52c0,5.39-4.37,9.76-9.76,9.76c-5.39,0-9.76-4.37-9.76-9.76c0-5.39,4.37-9.76,9.76-9.76
					C380.6,1200.76,384.96,1205.13,384.96,1210.52z"/>
				<path class="st28" d="M394.55,1249.1h-38.69v-25.18c0-1.65,1.34-2.99,2.99-2.99h32.7c1.65,0,2.99,1.34,2.99,2.99V1249.1z"/>
			</g>
		</g>
		<rect x="416.87" y="1203.44" class="st38" width="285.68" height="4.31"/>
		<rect x="416.87" y="1216.43" class="st38" width="285.68" height="4.31"/>
		<rect x="416.87" y="1229.42" class="st38" width="285.68" height="4.31"/>
		<rect x="416.87" y="1242.4" class="st38" width="285.68" height="4.31"/>
	</g>
	<g>
		<path class="st41" d="M932.95,440c-1.33,0-2.65,0.05-3.97,0.1c2.57-10.62,3.97-21.7,3.97-33.11
			c0-77.36-62.71-140.07-140.07-140.07c-32.58,0-62.54,11.15-86.33,29.81c-22.36-47.63-70.74-80.62-126.84-80.62
			c-67.06,0-123.09,47.14-136.82,110.08c-14.51-5.09-30.1-7.88-46.34-7.88c-71.13,0-129.84,53.04-138.84,121.72
			c-0.41,0-0.82-0.03-1.24-0.03c-39.91,0-74.7,21.84-93.11,54.22c-4.87,8.57,1.29,19.22,11.15,19.22h183.61h96.57h280.14h96.46
			h183.61c9.86,0,16.02-10.65,11.15-19.22C1007.65,461.85,972.85,440,932.95,440z"/>
		<g>
			<polygon class="st28" points="592.53,542.26 497.86,378.3 403.2,542.26 466.28,542.26 466.28,747 529.44,747 529.44,542.26 			
				"/>
			<polygon class="st34" points="596.89,583.04 691.56,747 786.22,583.04 723.14,583.04 723.14,378.3 659.98,378.3 659.98,583.04 
							"/>
		</g>
	</g>
	<g>
		<rect x="216.93" y="1559.64" class="st34" width="417.66" height="243.15"/>
		<polygon class="st42" points="216.93,1802.79 425.76,1666.27 634.59,1802.79 		"/>
		<polygon class="st35" points="216.93,1559.64 425.76,1727.28 634.59,1559.64 		"/>
	</g>
	<g>
		<g>
			<path class="st29" d="M1450.42,243.04H1336.8c-13.71,0-24.83,11.12-24.83,24.83v220.87c0,13.71,11.12,24.83,24.83,24.83h113.62
				c13.71,0,24.83-11.12,24.83-24.83V267.87C1475.24,254.16,1464.13,243.04,1450.42,243.04z"/>
			<g>
				<defs>
					<path id="SVGID_11_" d="M1441,255.85h-94.79c-11.44,0-20.71,9.27-20.71,20.71v184.27c0,11.44,9.27,20.71,20.71,20.71H1441
						c11.44,0,20.71-9.27,20.71-20.71V276.56C1461.72,265.12,1452.44,255.85,1441,255.85z"/>
				</defs>
				<clipPath id="SVGID_12_">
					<use xlink:href="#SVGID_11_"  style="overflow:visible;"/>
				</clipPath>
				<path class="st43" d="M1441,255.85h-94.79c-11.44,0-20.71,9.27-20.71,20.71v184.27c0,11.44,9.27,20.71,20.71,20.71H1441
					c11.44,0,20.71-9.27,20.71-20.71V276.56C1461.72,265.12,1452.44,255.85,1441,255.85z"/>
				<polygon class="st44" points="1297.56,428.72 1451.23,222.23 1488.05,222.23 1297.56,481.55 				"/>
				<polygon class="st44" points="1311.97,510.36 1494.45,255.85 1494.45,279.86 1311.97,539.17 				"/>
			</g>
			<path class="st38" d="M1401.61,495.95c0,4.42-3.58,8-8,8c-4.42,0-8-3.58-8-8c0-4.42,3.58-8,8-8
				C1398.03,487.95,1401.61,491.53,1401.61,495.95z"/>
		</g>
		<g>
			<rect x="1439.54" y="304.67" class="st38" width="219.28" height="166.67"/>
			<g>
				<polygon class="st27" points="1507.45,436.38 1460.24,389.17 1508.1,341.32 1516.12,349.34 1476.29,389.17 1515.47,428.36 				
					"/>
			</g>
			<g>
				<polygon class="st27" points="1588.5,436.38 1580.48,428.36 1620.31,388.53 1581.13,349.34 1589.15,341.32 1636.35,388.53 				
					"/>
			</g>
			<g>
				
					<rect x="1503.16" y="384.99" transform="matrix(0.3828 -0.9238 0.9238 0.3828 594.6929 1671.4789)" class="st27" width="90.29" height="11.35"/>
			</g>
			<rect x="1439.54" y="285.26" class="st27" width="219.28" height="19.41"/>
		</g>
	</g>
	<g class="st45">
		<rect x="2317.02" y="940.26" class="st46" width="648.98" height="352.02"/>
		<rect x="2346.46" y="976.09" class="st47" width="540.52" height="25.32"/>
		<rect x="2346.46" y="1017.22" class="st31" width="377.88" height="25.32"/>
		<rect x="2346.46" y="1058.35" class="st31" width="462.45" height="25.32"/>
		<rect x="2346.46" y="1099.48" class="st31" width="540.52" height="25.32"/>
		<rect x="2346.46" y="1140.61" class="st31" width="498.8" height="25.32"/>
		<rect x="2346.46" y="1181.74" class="st31" width="443.27" height="25.32"/>
		<rect x="2346.46" y="1222.87" class="st31" width="509.46" height="25.32"/>
	</g>
</g>
<polygon class="st48" points="2674.88,505.74 2674.88,829.89 2863.96,829.89 2945,748.85 2945,505.74 "/>
<polygon class="st49" points="2863.96,748.85 2863.96,829.89 2945,748.85 "/>
<polygon class="st50" points="2782.93,829.89 2863.96,829.89 2863.96,748.85 "/>
<path class="st51" d="M2620.85,586.78v94.54h216.1v-94.54H2620.85L2620.85,586.78z"/>
<g>
	<path class="st38" d="M2675.15,615.57c-1-1.93-2.82-2.89-5.47-2.89c-1.46,0-2.66,0.39-3.61,1.19c-0.95,0.78-1.69,2.04-2.23,3.8
		c-0.54,1.76-0.92,4.05-1.13,6.9c-0.23,2.84-0.32,6.31-0.32,10.41c0,4.38,0.15,7.91,0.45,10.62c0.28,2.7,0.76,4.78,1.38,6.28
		c0.62,1.5,1.4,2.5,2.35,3c0.95,0.51,2.04,0.78,3.28,0.78c1.03,0,1.99-0.18,2.88-0.53c0.89-0.35,1.66-1.05,2.31-2.11
		c0.66-1.05,1.18-2.54,1.54-4.46c0.38-1.92,0.57-4.44,0.57-7.58h11.66c0,3.12-0.24,6.1-0.73,8.91c-0.49,2.81-1.4,5.27-2.71,7.37
		c-1.34,2.09-3.19,3.74-5.59,4.93c-2.4,1.19-5.52,1.8-9.36,1.8c-4.36,0-7.86-0.72-10.44-2.11c-2.59-1.4-4.58-3.43-5.96-6.08
		c-1.38-2.65-2.27-5.81-2.67-9.48c-0.39-3.66-0.61-7.73-0.61-12.14c0-4.38,0.22-8.41,0.61-12.11c0.41-3.69,1.31-6.87,2.67-9.52
		c1.39-2.63,3.36-4.71,5.96-6.2c2.58-1.47,6.08-2.23,10.44-2.23c4.17,0,7.44,0.68,9.85,2.03c2.4,1.35,4.2,3.07,5.38,5.15
		c1.18,2.08,1.94,4.32,2.23,6.73c0.3,2.4,0.45,4.66,0.45,6.77h-11.66C2676.63,620.54,2676.14,617.48,2675.15,615.57z"/>
	<path class="st38" d="M2712.93,646.72c0,1.35,0.12,2.58,0.32,3.67c0.23,1.11,0.62,2.04,1.22,2.8c0.59,0.77,1.4,1.36,2.4,1.8
		c0.99,0.42,2.26,0.65,3.75,0.65c1.8,0,3.39-0.58,4.82-1.74c1.42-1.16,2.15-2.97,2.15-5.39c0-1.3-0.19-2.42-0.53-3.36
		c-0.35-0.95-0.93-1.8-1.74-2.54c-0.82-0.77-1.89-1.45-3.2-2.07s-2.96-1.26-4.9-1.9c-2.58-0.86-4.82-1.82-6.73-2.85
		c-1.89-1.01-3.47-2.21-4.74-3.61c-1.27-1.38-2.2-2.97-2.8-4.78c-0.59-1.82-0.89-3.9-0.89-6.29c0-5.73,1.59-9.98,4.78-12.79
		c3.17-2.81,7.56-4.21,13.13-4.21c2.59,0,4.98,0.28,7.17,0.85s4.08,1.47,5.67,2.76c1.59,1.27,2.84,2.89,3.73,4.85
		c0.88,1.97,1.34,4.34,1.34,7.09v1.62h-11.17c0-2.76-0.49-4.88-1.45-6.37c-0.97-1.47-2.59-2.23-4.86-2.23c-1.3,0-2.38,0.2-3.24,0.57
		c-0.85,0.38-1.55,0.88-2.07,1.5s-0.88,1.36-1.07,2.17c-0.2,0.81-0.28,1.65-0.28,2.51c0,1.8,0.38,3.28,1.13,4.5
		c0.76,1.23,2.38,2.35,4.86,3.36l9,3.89c2.22,0.97,4.02,1.99,5.42,3.05c1.4,1.05,2.54,2.19,3.36,3.4c0.84,1.22,1.42,2.54,1.74,4.01
		c0.32,1.45,0.49,3.08,0.49,4.85c0,6.1-1.77,10.55-5.31,13.33c-3.54,2.78-8.47,4.19-14.79,4.19c-6.59,0-11.3-1.43-14.15-4.29
		c-2.84-2.86-4.24-6.97-4.24-12.32v-2.35h11.67V646.72L2712.93,646.72z"/>
	<path class="st38" d="M2770.56,648.01h0.26l8.59-42.79h12.09l-13.29,57.86h-14.99l-13.28-57.86h12.48L2770.56,648.01z"/>
</g>
<polygon class="st48" points="2242.67,2072.69 2242.67,2388.71 2427.01,2388.71 2506.02,2309.7 2506.02,2072.69 "/>
<polygon class="st49" points="2427.01,2309.7 2427.01,2388.71 2506.02,2309.7 "/>
<polygon class="st50" points="2348.01,2388.71 2427.01,2388.71 2427.01,2309.7 "/>
<path class="st52" d="M2190,2151.69v92.17h210.68v-92.17H2190z"/>
<g>
	<path class="st38" d="M2230.48,2169.68l7.27,18.25l7.19-18.25h12.4l-13.11,27.89l14.06,28.52h-12.8l-8.12-19.12l-8.07,19.12h-12.48
		l14.06-28.52l-12.96-27.89H2230.48L2230.48,2169.68z"/>
	<path class="st38" d="M2270.61,2169.68h11.38v47.09h20.13v9.32h-31.51V2169.68L2270.61,2169.68z"/>
	<path class="st38" d="M2324.26,2210.13c0,1.32,0.11,2.51,0.3,3.58c0.22,1.08,0.61,1.99,1.19,2.73c0.58,0.75,1.37,1.33,2.34,1.75
		c0.96,0.41,2.2,0.63,3.66,0.63c1.75,0,3.3-0.57,4.7-1.7c1.38-1.13,2.09-2.9,2.09-5.25c0-1.26-0.18-2.36-0.51-3.28
		c-0.34-0.92-0.91-1.75-1.7-2.48c-0.8-0.75-1.84-1.41-3.12-2.01c-1.28-0.61-2.88-1.22-4.78-1.86c-2.51-0.84-4.7-1.78-6.56-2.78
		c-1.84-0.99-3.38-2.16-4.62-3.52c-1.24-1.34-2.15-2.9-2.73-4.66c-0.58-1.78-0.87-3.81-0.87-6.14c0-5.58,1.55-9.73,4.66-12.47
		c3.09-2.74,7.37-4.11,12.8-4.11c2.53,0,4.86,0.28,6.99,0.83s3.98,1.44,5.53,2.69c1.55,1.24,2.77,2.82,3.63,4.73
		c0.86,1.92,1.3,4.23,1.3,6.91v1.58h-10.9c0-2.69-0.47-4.75-1.41-6.22c-0.95-1.44-2.53-2.17-4.74-2.17c-1.26,0-2.32,0.2-3.16,0.55
		c-0.83,0.37-1.51,0.86-2.01,1.46c-0.5,0.61-0.83,1.3-1.01,2.09c-0.2,0.79-0.28,1.61-0.28,2.45c0,1.75,0.37,3.2,1.11,4.38
		c0.74,1.2,2.32,2.29,4.74,3.28l8.77,3.79c2.16,0.95,3.92,1.94,5.28,2.98c1.37,1.03,2.48,2.13,3.28,3.32
		c0.82,1.19,1.38,2.48,1.7,3.91c0.32,1.41,0.47,3,0.47,4.73c0,5.95-1.72,10.28-5.17,13c-3.45,2.71-8.26,4.08-14.42,4.08
		c-6.43,0-11.02-1.4-13.8-4.19c-2.77-2.79-4.13-6.79-4.13-12.01v-2.29h11.38V2210.13z"/>
</g>
<g>
	<path class="st53" d="M199.86,1169.81H58.03c-13.82,0-25.03-11.21-25.03-25.03l0,0V952.89c0-13.82,11.21-25.03,25.03-25.03h116.8
		l50.06,50.06v166.86C224.89,1158.6,213.68,1169.81,199.86,1169.81L199.86,1169.81z"/>
	<path class="st54" d="M33,1103.07h191.89l0,0v41.72c0,13.82-11.21,25.03-25.03,25.03l0,0H58.03c-13.82,0-25.03-11.21-25.03-25.03
		l0,0V1103.07L33,1103.07z"/>
	<path class="st55" d="M224.89,977.92h-25.03c-13.82,0-25.03-11.21-25.03-25.03v-25.03L224.89,977.92z"/>
	<g>
		<path class="st56" d="M91.4,1123.92h8.34c2.3,0,4.17-1.87,4.17-4.17s-1.87-4.17-4.17-4.17H91.4c-6.91,0-12.51,5.6-12.51,12.51
			s5.6,12.51,12.51,12.51c2.3,0,4.17,1.87,4.17,4.17c0,2.3-1.87,4.17-4.17,4.17h-8.34c-2.3,0-4.17,1.87-4.17,4.17
			c0,2.3,1.87,4.17,4.17,4.17h8.34c6.91,0,12.51-5.6,12.51-12.51s-5.6-12.51-12.51-12.51c-2.3,0-4.17-1.87-4.17-4.17
			C87.23,1125.79,89.1,1123.92,91.4,1123.92z"/>
		<path class="st56" d="M174.83,1148.95h-12.51v-29.2c0-2.3-1.87-4.17-4.17-4.17c-2.3,0-4.17,1.87-4.17,4.17v33.37
			c0,2.3,1.87,4.17,4.17,4.17h16.69c2.3,0,4.17-1.87,4.17-4.17C179,1150.82,177.14,1148.95,174.83,1148.95z"/>
		<path class="st56" d="M142.61,1148.38c2.01-3.66,3.05-7.77,3.02-11.94c0-11.5-7.49-20.86-16.69-20.86s-16.69,9.36-16.69,20.86
			c0,11.5,7.49,20.86,16.69,20.86c2.92-0.02,5.76-0.95,8.13-2.65l1.43,1.43c1.63,1.63,4.27,1.63,5.9,0c1.63-1.63,1.63-4.27,0-5.9
			L142.61,1148.38z M128.95,1148.95c-4.52,0-8.34-5.73-8.34-12.51s3.82-12.51,8.34-12.51c4.52,0,8.34,5.73,8.34,12.51
			c0.01,1.93-0.31,3.85-0.94,5.67l-4.45-4.45c-1.63-1.63-4.27-1.63-5.9,0c-1.63,1.63-1.63,4.27,0,5.9l5,5
			C130.34,1148.82,129.65,1148.95,128.95,1148.95L128.95,1148.95z"/>
	</g>
	<path class="st55" d="M91.4,986.26v75.09c0,4.61,16.81,8.34,37.54,8.34s37.54-3.74,37.54-8.34v-75.09H91.4z"/>
	<ellipse class="st56" cx="128.95" cy="986.26" rx="37.54" ry="8.34"/>
	<path class="st54" d="M128.95,1040.49c-21.58,0-34.67-3.24-37.54-5.16v8.88c6.42,2.52,17.67,4.62,37.54,4.62s31.12-2.09,37.54-4.62
		v-8.88C163.62,1037.26,150.52,1040.49,128.95,1040.49z"/>
	<path class="st54" d="M128.95,1015.46c-21.58,0-34.67-3.24-37.54-5.16v8.88c6.42,2.52,17.67,4.62,37.54,4.62s31.12-2.09,37.54-4.62
		v-8.88C163.62,1012.23,150.52,1015.46,128.95,1015.46z"/>
</g>
<g>
	<path class="st57" d="M2779.13,2072.69h-164.71c-4.59,0-8.3,3.72-8.3,10.93v301.22c0,1.96,3.72,5.68,8.3,5.68h227.44
		c4.59,0,8.3-3.72,8.3-5.68v-238.49c0-3.95-0.53-5.22-1.46-6.16l-66.04-66.04C2781.72,2073.22,2780.45,2072.69,2779.13,2072.69z"/>
	<polygon class="st58" points="2782.05,2073.55 2782.05,2140.79 2849.3,2140.79 	"/>
	<path class="st59" d="M2841.85,2390.51h-227.44c-4.59,0-8.3-3.72-8.3-8.3v-88.18h244.04v88.18
		C2850.15,2386.8,2846.44,2390.51,2841.85,2390.51z"/>
	<g>
		<path class="st38" d="M2679.2,2345.71l14.51,27.78h-10.78l-9.08-21.57h-0.78l-9.78,21.57h-10.78l14.51-27.78l-15.44-29.41h10.63
			l10.09,23.28h0.78l10.94-23.28h10.63L2679.2,2345.71z"/>
		<path class="st38" d="M2750.82,2316.3h9.47v57.19h-9.47v-39.34l-12.8,31.81h-8.22l-12.88-31.81v39.34h-9.47v-57.19h9.47
			l16.99,39.11L2750.82,2316.3z"/>
		<path class="st38" d="M2784.11,2316.3v50.13h26.31v7.06h-35.77v-57.19H2784.11z"/>
	</g>
	<path class="st59" d="M2657.19,2208.9c-1.45,0-2.91-0.56-4.01-1.66c-2.22-2.22-2.22-5.81,0-8.02l34.05-34.05
		c2.22-2.22,5.81-2.22,8.02,0c2.22,2.22,2.22,5.81,0,8.02l-34.05,34.05C2660.1,2208.34,2658.64,2208.9,2657.19,2208.9z"/>
	<path class="st59" d="M2691.24,2242.95c-1.45,0-2.91-0.56-4.01-1.66l-34.05-34.05c-2.22-2.22-2.22-5.81,0-8.02
		c2.22-2.22,5.81-2.22,8.02,0l34.05,34.05c2.22,2.22,2.22,5.81,0,8.02C2694.15,2242.4,2692.7,2242.95,2691.24,2242.95z"/>
	<path class="st59" d="M2759.35,2242.95c-1.45,0-2.91-0.56-4.01-1.66c-2.22-2.22-2.22-5.81,0-8.02l34.05-34.05
		c2.22-2.22,5.81-2.22,8.03,0c2.22,2.22,2.22,5.81,0,8.02l-34.05,34.05C2762.25,2242.4,2760.8,2242.95,2759.35,2242.95z"/>
	<path class="st59" d="M2793.4,2208.9c-1.45,0-2.91-0.56-4.01-1.66l-34.05-34.05c-2.22-2.22-2.22-5.81,0-8.02
		c2.22-2.22,5.81-2.22,8.02,0l34.05,34.05c2.22,2.22,2.22,5.81,0,8.02C2796.31,2208.34,2794.85,2208.9,2793.4,2208.9z"/>
	<path class="st59" d="M2708.27,2254.3c-0.62,0-1.27-0.11-1.89-0.33c-2.96-1.04-4.51-4.28-3.46-7.24l34.05-96.48
		c1.05-2.96,4.27-4.51,7.24-3.46c2.96,1.04,4.51,4.28,3.46,7.24l-34.05,96.48C2712.8,2252.85,2710.61,2254.3,2708.27,2254.3z"/>
</g>
<g>
	<g>
		<polygon class="st60" points="1041.3,1742.54 909.53,1814.98 777.19,1606.73 937.25,1551.13 		"/>
	</g>
	<g>
		<polygon class="st61" points="1032.95,1736.29 909.71,1804.02 785.96,1609.28 935.64,1557.28 		"/>
	</g>
	<g>
		<path class="st62" d="M1078.08,1699.86c0,0-22.94-10.97-33.01-16.7c-10.07-5.73-35.96-13.6-38.05-15.47
			c-2.09-1.87-76.76-6.47-81.29-10.39c-4.54-3.9-8.93,9.16,10.42,13.4c19.35,4.24,46.29,14.6,47.76,22.17
			c1.48,7.56-19.88,9.36-22.05,15.59c-2.16,6.23,0.61,4.83,3.67,6.17c3.06,1.34,25.4-11.03,35.22-7.53
			c9.82,3.51,24.84-1.35,32.37,1.23c7.53,2.57,44.14,14.89,44.14,14.89L1078.08,1699.86z"/>
	</g>
	<g>
		<path class="st63" d="M1036.69,1716.06l-11.82-4.37c0,0,14.74-34.59,21.16-33.74c7.41,0.97,16.66,3.41,16.66,3.41L1036.69,1716.06
			z"/>
	</g>
	<g>
		<path class="st64" d="M1033.99,1722.03c1.51-1.13,25.11-46.41,25.11-46.41l50.43,6.86l-27.25,53.63L1033.99,1722.03z"/>
	</g>
	<g>
		<path class="st62" d="M903.1,1788.85c0,0-19.27-17.34-28.59-24.6c-9.32-7.25-26.82-28.6-29.4-29.84
			c-2.58-1.24-35.99-69.82-41.44-72.57c-5.44-2.74,5.15-11.98,16.69,4.61c11.53,16.59,31.78,37.94,39.48,36.38
			c7.71-1.55,1.08-22.37,6.11-26.84c5.03-4.47,4.79-1.31,7.25,1.05c2.45,2.36-0.51,28.23,6.62,36.12
			c7.13,7.89,8.39,23.93,13.76,30.03c5.36,6.09,31.22,35.79,31.22,35.79L903.1,1788.85z"/>
	</g>
	<g>
		<path class="st65" d="M1318.08,2715.79c0,0,4.17,28.93,4.69,33.27c0.52,4.35,46.37-2.56,46.37-2.56l3.71-34.44
			C1372.85,2712.07,1323.81,2711.71,1318.08,2715.79z"/>
	</g>
	<g>
		<path class="st60" d="M1322.28,2745.39c0,0-14.53,17.43-28.57,25.03c-14.05,7.6-36.13,10.61-44.43,18.48
			c-6,5.68-21.84,30.12,36.51,29.63c58.35-0.49,86.48,3.45,92.73-5.92c6.25-9.37-9.05-69.17-9.05-69.17
			S1355.65,2748.4,1322.28,2745.39z"/>
	</g>
	<g>
		<path class="st65" d="M989.58,2715.79c0,0,4.17,28.93,4.69,33.27c0.52,4.35,46.36-2.56,46.36-2.56l3.71-34.44
			C1044.35,2712.07,995.32,2711.71,989.58,2715.79z"/>
	</g>
	<g>
		<path class="st60" d="M993.78,2745.39c0,0-14.53,17.43-28.57,25.03c-14.05,7.6-65.75,13.85-74.05,21.71
			c-6,5.68-15.97,28.53,66.13,26.4c58.33-1.52,86.48,3.45,92.74-5.92c6.25-9.37-9.04-69.17-9.04-69.17
			S1027.95,2748.74,993.78,2745.39z"/>
	</g>
	<g>
		<path class="st60" d="M1280.11,1972.39c0,0,43.08,68.44,39.87,130.3c-3.21,61.87,15.63,129.42,22.09,194.04
			c7.22,72.05,36.73,242.62,37.81,281.16c1.07,38.55-4.58,161.61-4.58,161.61l-59.1,1.35c0,0-49.64-298.2-62.49-328.63
			c-12.85-30.42-76.61-247.34-78.75-271.68C1172.81,2116.21,1280.11,1972.39,1280.11,1972.39z"/>
	</g>
	<g>
		<path class="st60" d="M1053.35,1981.66c0,0-32.47,169.57-36.75,207.43c-4.29,37.87-7.15,183.25-9.28,206.91
			c-2.15,23.67-14.28,309.69-25.72,344.86h75.56c0,0,57.99-207.93,57.99-306.31c0-98.38,44.81-213.88,73.73-278.79
			c28.93-64.91,95.13-66.44,112.91-186.88C1301.8,1968.88,1077.41,1943.47,1053.35,1981.66z"/>
	</g>
	<g>
		<path class="st62" d="M1208.23,1396.97c0,0-57.82-21.6-84.48,22.41c-26.66,44.01-24.09,132.13,5.05,142.96
			c29.15,10.84,72.93,5.17,87.85-22.37c14.92-27.54,28.39-67.36,27.75-93.97C1243.75,1419.4,1223.42,1404.64,1208.23,1396.97z"/>
	</g>
	<g>
		<path class="st62" d="M1135.08,1564.37c0,0,2.41,15.6-1.57,23.3s74.91,7.9,74.91,7.9s6.41-41.83,18.55-77.17
			C1239.1,1483.04,1135.08,1564.37,1135.08,1564.37z"/>
	</g>
	<g>
		<path class="st66" d="M1226.96,1518.39c0,0-5.44,8.98-27.67,5.5c-22.22-3.49-49.34-33.06-58.62-36.3c-9.28-3.24-9.37-8.7-9.37-8.7
			l-5.81,8.49l-9.86,0.62c0,0,8.99-26.45-4.57-37.23c-13.56-10.79,14.07-85.62,85.35-60.71c0,0,54.75,15.1,52.76,46.23
			C1247.19,1467.41,1239.21,1502.88,1226.96,1518.39z"/>
	</g>
	<g>
		<path class="st61" d="M1128.82,1586.74c0,0,0.25-14.7,6.91-16.1c6.66-1.41,73.52-7.84,81.69-4.62v17.12
			C1217.43,1583.13,1201.67,1592.82,1128.82,1586.74z"/>
	</g>
	<g>
		<path class="st62" d="M1132.78,1467.56c1.24-5.22,14.53-20.14,19.61-4.16c5.08,15.98-7.68,37.47-14.81,35.63
			C1130.46,1497.18,1129.62,1480.8,1132.78,1467.56z"/>
	</g>
	<g>
		<path class="st67" d="M863.49,1760.35c0.03-0.02,0.07-0.02,0.11-0.02C863.15,1760.53,863.08,1760.55,863.49,1760.35z"/>
	</g>
	<g>
		<path class="st67" d="M1328.71,2135.44c0,0-35.46,10.43-95.93,17.1c-60.47,6.66-211.55-2.41-212.51-9.55
			c-0.96-7.15,32.49-266.01,30.6-279.34c-1.91-13.33-2.93-60.83-2.93-60.83c-0.74,13.02-14,66.18-30.01,95.16
			c-5.79,10.47-25.19,43.29-34.53,35.83c-45.26-36.14-115.35-172.32-119.79-173.47c3.73-1.62,33.21-15.2,37.35-16.57
			c3.62-1.21,36.27,33.36,56.06,54.79c8.82,9.56,15.08,16.49,15.08,16.49c5.72-12.85,26.53-93.83,32.99-121.86
			c14.59-63.21,12.34-65.83,12.34-65.83c44.24-13.39,111.38-40.62,111.38-40.62l88.6-3.62c0,0,81.32,17.9,113.34,32.37
			c3.04,1.37,3.05,72.54,11.39,91.2l-26.55,56.02c0,0-15.34,110.95-18.52,160.3C1295.62,1945.67,1328.71,2135.44,1328.71,2135.44z"
			/>
	</g>
	<g>
		<path class="st67" d="M1345.83,1799.1c-2.32,7.47-12.82,13.78-19.64,16.53c-4.37,1.77-9.26,2.34-14.19,1.43l-3.47-0.64l0,0
			l-60.72-11.26c0,0-13.29-153.01,82.94-189.66C1333.31,1616.32,1367.08,1730.59,1345.83,1799.1z"/>
	</g>
	<g>
		<path class="st68" d="M1326.19,1815.63L1326.19,1815.63c-4.37,1.77-9.26,2.34-14.19,1.43l-3.47-0.64l0,0l5.99-78.19
			L1326.19,1815.63z"/>
	</g>
	<g>
		<path class="st68" d="M972.11,1815.04l-7.42,31.43c0,0-8.05-31.54-7.66-47.92C965.84,1808.11,972.11,1815.04,972.11,1815.04z"/>
	</g>
	<g>
		<path class="st66" d="M1224.7,1402.15c0,0,75.79-8.74,1.3,117.84L1224.7,1402.15z"/>
	</g>
	<g>
		<polygon class="st60" points="838.11,1595.56 830.41,1582.32 891.08,1561.38 898.78,1574.55 		"/>
	</g>
</g>
</svg>
